HIERARCHY
ROOT hip
{
  OFFSET 0 0 0
  CHANNELS 6 Xposition Yposition Zposition Zrotation Yrotation Xrotation
  JOINT abdomen
  {
    OFFSET 0 20.6881 -0.73152
    CHANNELS 3 Zrotation Xrotation Yrotation
    JOINT chest
    {
      OFFSET 0 11.7043 -0.48768
      CHANNELS 3 Zrotation Xrotation Yrotation
      JOINT neck
      {
        OFFSET 0 22.1894 -2.19456
        CHANNELS 3 Zrotation Xrotation Yrotation
        JOINT head
        {
          OFFSET -0.24384 7.07133 1.2192
          CHANNELS 3 Zrotation Xrotation Yrotation
          JOINT leftEye
          {
            OFFSET 4.14528 8.04674 8.04672
            CHANNELS 3 Zrotation Xrotation Yrotation
            End Site
            {
              OFFSET 1 0 0
            }
          }
          JOINT rightEye
          {
            OFFSET -3.6576 8.04674 8.04672
            CHANNELS 3 Zrotation Xrotation Yrotation
            End Site
            {
              OFFSET 1 0 0
            }
          }
        }
      }
      JOINT rCollar
      {
        OFFSET -2.68224 19.2634 -4.8768
        CHANNELS 3 Zrotation Xrotation Yrotation
        JOINT rShldr
        {
          OFFSET -8.77824 -1.95073 1.46304
          CHANNELS 3 Zrotation Xrotation Yrotation
          JOINT rForeArm
          {
            OFFSET -28.1742 -1.7115 0.48768
            CHANNELS 3 Zrotation Xrotation Yrotation
            JOINT rHand
            {
              OFFSET -22.5879 0.773209 7.07136
              CHANNELS 3 Zrotation Xrotation Yrotation
              JOINT rThumb1
              {
                OFFSET -1.2192 -0.487915 3.41376
                CHANNELS 3 Zrotation Xrotation Yrotation
                JOINT rThumb2
                {
                  OFFSET -3.37035 -0.52449 3.41376
                  CHANNELS 3 Zrotation Xrotation Yrotation
                  End Site
                  {
                    OFFSET -1.78271 -1.18214 1.43049
                  }
                }
              }
              JOINT rIndex1
              {
                OFFSET -7.75947 0.938293 5.60832
                CHANNELS 3 Zrotation Xrotation Yrotation
                JOINT rIndex2
                {
                  OFFSET -2.54057 -0.884171 1.56538
                  CHANNELS 3 Zrotation Xrotation Yrotation
                  End Site
                  {
                    OFFSET -1.62519 -0.234802 1.16502
                  }
                }
              }
              JOINT rMid1
              {
                OFFSET -8.24714 1.18213 3.41376
                CHANNELS 3 Zrotation Xrotation Yrotation
                JOINT rMid2
                {
                  OFFSET -3.10165 -0.590103 1.0647
                  CHANNELS 3 Zrotation Xrotation Yrotation
                  End Site
                  {
                    OFFSET -2.48547 -0.328903 0.83742
                  }
                }
              }
              JOINT rRing1
              {
                OFFSET -8.82822 0.546677 1.51678
                CHANNELS 3 Zrotation Xrotation Yrotation
                JOINT rRing2
                {
                  OFFSET -2.60934 -0.819778 -0.0198488
                  CHANNELS 3 Zrotation Xrotation Yrotation
                  End Site
                  {
                    OFFSET -2.33842 -0.294052 0.168128
                  }
                }
              }
              JOINT rPinky1
              {
                OFFSET -8.27202 -0.0477905 -0.4584
                CHANNELS 3 Zrotation Xrotation Yrotation
                JOINT rPinky2
                {
                  OFFSET -1.82734 -0.647385 -0.700984
                  CHANNELS 3 Zrotation Xrotation Yrotation
                  End Site
                  {
                    OFFSET -1.69225 -0.51767 -0.607171
                  }
                }
              }
            }
          }
        }
      }
      JOINT lCollar
      {
        OFFSET 2.68224 19.2634 -4.8768
        CHANNELS 3 Zrotation Xrotation Yrotation
        JOINT lShldr
        {
          OFFSET 8.77824 -1.95073 1.46304
          CHANNELS 3 Zrotation Xrotation Yrotation
          JOINT lForeArm
          {
            OFFSET 28.1742 -1.7115 0.48768
            CHANNELS 3 Zrotation Xrotation Yrotation
            JOINT lHand
            {
              OFFSET 22.5879 0.773209 7.07136
              CHANNELS 3 Zrotation Xrotation Yrotation
              JOINT lThumb1
              {
                OFFSET 1.2192 -0.487915 3.41376
                CHANNELS 3 Zrotation Xrotation Yrotation
                JOINT lThumb2
                {
                  OFFSET 3.37035 -0.52449 3.41376
                  CHANNELS 3 Zrotation Xrotation Yrotation
                  End Site
                  {
                    OFFSET 1.78271 -1.18214 1.43049
                  }
                }
              }
              JOINT lIndex1
              {
                OFFSET 7.75947 0.938293 5.60832
                CHANNELS 3 Zrotation Xrotation Yrotation
                JOINT lIndex2
                {
                  OFFSET 2.54057 -0.884171 1.56538
                  CHANNELS 3 Zrotation Xrotation Yrotation
                  End Site
                  {
                    OFFSET 1.62519 -0.234802 1.16502
                  }
                }
              }
              JOINT lMid1
              {
                OFFSET 8.24714 1.18213 3.41376
                CHANNELS 3 Zrotation Xrotation Yrotation
                JOINT lMid2
                {
                  OFFSET 3.10165 -0.590103 1.0647
                  CHANNELS 3 Zrotation Xrotation Yrotation
                  End Site
                  {
                    OFFSET 2.48547 -0.328903 0.83742
                  }
                }
              }
              JOINT lRing1
              {
                OFFSET 8.82822 0.546677 1.51678
                CHANNELS 3 Zrotation Xrotation Yrotation
                JOINT lRing2
                {
                  OFFSET 2.60934 -0.819778 -0.0198488
                  CHANNELS 3 Zrotation Xrotation Yrotation
                  End Site
                  {
                    OFFSET 2.33842 -0.294052 0.168128
                  }
                }
              }
              JOINT lPinky1
              {
                OFFSET 8.27202 -0.0477905 -0.4584
                CHANNELS 3 Zrotation Xrotation Yrotation
                JOINT lPinky2
                {
                  OFFSET 1.82734 -0.647385 -0.700984
                  CHANNELS 3 Zrotation Xrotation Yrotation
                  End Site
                  {
                    OFFSET 1.69225 -0.51767 -0.607171
                  }
                }
              }
            }
          }
        }
      }
    }
  }
  JOINT rButtock
  {
    OFFSET -8.77824 4.35084 1.2192
    CHANNELS 3 Zrotation Xrotation Yrotation
    JOINT rThigh
    {
      OFFSET 0 -1.70687 -2.19456
      CHANNELS 3 Zrotation Xrotation Yrotation
      JOINT rShin
      {
        OFFSET 0 -36.8199 0.73152
        CHANNELS 3 Zrotation Xrotation Yrotation
        JOINT rFoot
        {
          OFFSET 0.73152 -45.1104 -5.12064
          CHANNELS 3 Zrotation Xrotation Yrotation
          End Site
          {
            OFFSET -1.1221 -3.69964 12.103
          }
        }
      }
    }
  }
  JOINT lButtock
  {
    OFFSET 8.77824 4.35084 1.2192
    CHANNELS 3 Zrotation Xrotation Yrotation
    JOINT lThigh
    {
      OFFSET 0 -1.70687 -2.19456
      CHANNELS 3 Zrotation Xrotation Yrotation
      JOINT lShin
      {
        OFFSET 0 -36.8199 0.73152
        CHANNELS 3 Zrotation Xrotation Yrotation
        JOINT lFoot
        {
          OFFSET -0.73152 -45.1104 -5.12064
          CHANNELS 3 Zrotation Xrotation Yrotation
          End Site
          {
            OFFSET 1.1221 -3.69964 12.103
          }
        }
      }
    }
  }
}
MOTION
Frames:	6
Frame Time:	0.00833333
93.7205 85.3572 154.344 0.0 0.0 0.0 1.31606 -0.00470387 0.0362379 0.363464 -0.00359463 0.0629627 -1.44495e-14 -7.95139e-16 -3.47873e-16 -4.32854e-14 3.18055e-15 -1.02032e-15 -0.0 0.0 0.0 -0.0 0.0 0.0 -7.20733e-15 3.14484e-17 9.93923e-17 -1.4957e-13 6.27414e-16 -3.57812e-15 -2.61148e-12 8.02692e-13 -4.45278e-14 -2.98941e-11 -6.76713e-13 -7.66514e-13 -7.0517e-11 2.76032e-13 -1.71114e-12 -1.21789e-10 4.73903e-13 -2.94042e-12 -7.05129e-11 2.75516e-13 -1.70796e-12 7.73091 5.47488 0.417314 -7.05178e-11 2.76509e-13 -1.70796e-12 2.90554 0.965183 0.102902 -7.05125e-11 2.75913e-13 -1.70398e-12 10.2786 0.731801 0.0259123 -7.05222e-11 2.78696e-13 -1.69842e-12 2.22167 -0.733487 -0.20892 -7.40382e-15 3.02836e-17 -3.97569e-16 -1.52677e-13 3.97569e-16 -4.77083e-15 -2.61496e-12 -7.6393e-13 -4.13472e-14 -2.99111e-11 8.90406e-13 -7.31528e-13 -7.05548e-11 2.7618e-13 -1.70796e-12 -1.21831e-10 4.70722e-13 -2.93565e-12 -7.05614e-11 2.78299e-13 -1.68887e-12 -7.73091 5.47488 -0.417314 -7.05554e-11 2.7641e-13 -1.70478e-12 -2.90554 0.965183 -0.102902 -7.05628e-11 2.76708e-13 -1.70478e-12 -10.2786 0.731801 -0.0259123 -7.05461e-11 2.78696e-13 -1.71432e-12 -2.22167 -0.733487 0.20892 -2.03217e-16 0.0 -3.88251e-19 1.46216 -6.13864 -0.134738 0.00180697 5.56151 0.0541964 -0.477857 0.575014 0.0659329 2.03217e-16 0.0 3.88251e-19 0.544647 -1.92085 0.00800615 0.00891073 -2.07861 0.0733871 0.452915 3.99724 -0.131551
95.2819 82.1593 142.708 179.326 2.9599 -171.692 -1.88609 -0.0974957 1.80961 0.169587 0.411368 0.550561 0.5424 -5.07735 -0.0191603 0.773115 7.62016 -1.33695 -0.0 0.0 0.0 -0.0 0.0 0.0 1.39189e-14 -4.35263e-16 3.77225e-15 22.4555 13.0413 -4.45891 -19.3338 -17.027 15.1638 0.0141705 2.65189 0.371277 -1.51154e-10 -5.01353e-10 2.40849e-10 -2.59646e-10 -8.69872e-10 4.16988e-10 -1.51152e-10 -5.01349e-10 2.40848e-10 7.73091 5.47488 0.417314 -1.51154e-10 -5.01354e-10 2.40851e-10 2.90554 0.965183 0.102902 -1.51148e-10 -5.01355e-10 2.40856e-10 10.2786 0.731801 0.0259123 -1.51159e-10 -5.01352e-10 2.40862e-10 2.22167 -0.733487 -0.20892 1.3776e-14 -4.39082e-16 3.31256e-15 -19.7568 16.1087 4.73618 24.1245 -21.9786 -14.6572 -0.04229 4.56468 -0.634194 1.40556e-10 -1.1585e-09 -2.40976e-10 2.40355e-10 -2.01547e-09 -4.19534e-10 1.4055e-10 -1.1585e-09 -2.4096e-10 -7.73091 5.47488 -0.417314 1.40555e-10 -1.1585e-09 -2.40978e-10 -2.90554 0.965183 -0.102902 1.40549e-10 -1.1585e-09 -2.40976e-10 -10.2786 0.731801 -0.0259123 1.40563e-10 -1.1585e-09 -2.40988e-10 -2.22167 -0.733487 0.20892 -2.03217e-16 0.0 -3.88251e-19 0.0627269 -7.45774 -0.533828 -0.12924 21.678 0.232911 -0.474103 8.33398 -3.5766 2.03217e-16 0.0 3.88251e-19 -1.87353 -10.5165 -1.57729 0.100567 9.73931 0.0300913 0.501167 4.30988 4.45894
95.1163 81.5849 140.763 178.711 2.8201 -172.245 -5.20345 -0.215862 3.70792 -0.0560349 0.846146 1.07303 1.10801 -10.4431 -0.0487004 1.98137 15.6746 -2.84589 -0.0 0.0 0.0 -0.0 0.0 0.0 3.53873e-14 1.16548e-16 8.28684e-15 48.595 26.6348 -9.94739 -29.1548 -30.9174 35.3943 -0.00853581 5.48264 0.770324 -2.46612e-10 -1.08076e-09 5.25643e-10 -4.22895e-10 -1.87525e-09 9.10048e-10 -2.46613e-10 -1.08076e-09 5.25636e-10 7.73091 5.47488 0.417314 -2.46613e-10 -1.08077e-09 5.25644e-10 2.90554 0.965183 0.102902 -2.46605e-10 -1.08077e-09 5.25649e-10 10.2786 0.731801 0.0259123 -2.46617e-10 -1.08076e-09 5.25655e-10 2.22167 -0.733487 -0.20892 3.53017e-14 1.09632e-16 7.86442e-15 -44.0398 32.7432 11.2705 34.8374 -39.9837 -37.6399 0.0242 9.38139 -1.31718 3.92041e-10 -2.53767e-09 -5.24068e-10 6.71793e-10 -4.41455e-09 -9.1245e-10 3.92037e-10 -2.53767e-09 -5.24057e-10 -7.73091 5.47488 -0.417314 3.92041e-10 -2.53766e-09 -5.24077e-10 -2.90554 0.965183 -0.102902 3.92036e-10 -2.53766e-09 -5.24073e-10 -10.2786 0.731801 -0.0259123 3.92048e-10 -2.53766e-09 -5.24087e-10 -2.22167 -0.733487 0.20892 -2.03217e-16 0.0 -3.88251e-19 -1.37493 -8.71037 -0.946037 -0.404541 38.5542 0.492672 0.653318 16.5073 -7.65183 2.03217e-16 0.0 3.88251e-19 -4.92633 -19.6383 -3.41868 0.217705 22.2035 -0.0167432 0.491051 4.64344 9.27404
94.9071 81.0411 138.92 177.87 2.8041 -172.752 -8.27317 -0.281988 5.35642 -0.239356 1.24091 1.52607 1.6167 -15.232 -0.0593401 3.46212 22.8085 -4.31325 -0.0 0.0 0.0 -0.0 0.0 0.0 5.61715e-14 -1.36869e-15 1.1118e-14 74.7763 38.0438 -16.637 -29.4225 -35.3326 57.4623 -0.0614401 7.95434 1.12345 -3.12427e-10 -1.50461e-09 7.2597e-10 -5.35362e-10 -2.61056e-09 1.25684e-09 -3.1243e-10 -1.5046e-09 7.25959e-10 7.73091 5.47488 0.417314 -3.12428e-10 -1.50462e-09 7.2597e-10 2.90554 0.965183 0.102902 -3.12419e-10 -1.50462e-09 7.25976e-10 10.2786 0.731801 0.0259123 -3.12432e-10 -1.50461e-09 7.25982e-10 2.22167 -0.733487 -0.20892 5.61355e-14 -1.37781e-15 1.07328e-14 -70.246 46.6865 20.1208 31.007 -44.6253 -66.4144 0.183762 13.6872 -1.952 5.62776e-10 -3.47607e-09 -7.19511e-10 9.64727e-10 -6.04736e-09 -1.25273e-09 5.62773e-10 -3.47606e-09 -7.19503e-10 -7.73091 5.47488 -0.417314 5.62777e-10 -3.47606e-09 -7.19525e-10 -2.90554 0.965183 -0.102902 5.62773e-10 -3.47606e-09 -7.19518e-10 -10.2786 0.731801 -0.0259123 5.62782e-10 -3.47606e-09 -7.19535e-10 -2.22167 -0.733487 0.20892 -2.03217e-16 0.0 -3.88251e-19 -2.79211 -10.0942 -1.34076 -0.886479 53.9079 0.919132 2.69922 23.4553 -11.7295 2.03217e-16 0.0 3.88251e-19 -8.29426 -27.6198 -5.2704 0.342487 33.3751 -0.0691002 0.450757 4.8344 13.6509
94.6393 80.6803 137.136 176.597 3.1603 -173.192 -10.742 -0.219119 6.38027 -0.301782 1.53602 1.80528 1.99845 -18.5792 -0.0189896 4.76747 27.6932 -5.38017 -0.0 0.0 0.0 -0.0 0.0 0.0 7.52453e-14 -7.94653e-15 9.74045e-15 95.4241 44.9506 -23.2207 -28.2826 -32.7141 71.6067 -0.112696 9.52976 1.35193 -3.04134e-10 -1.53955e-09 7.15132e-10 -5.20876e-10 -2.67072e-09 1.23798e-09 -3.04139e-10 -1.53954e-09 7.15119e-10 7.73091 5.47488 0.417314 -3.04134e-10 -1.53956e-09 7.15132e-10 2.90554 0.965183 0.102902 -3.04126e-10 -1.53956e-09 7.15137e-10 10.2786 0.731801 0.0259123 -3.0414e-10 -1.53955e-09 7.15145e-10 2.22167 -0.733487 -0.20892 7.52397e-14 -7.95566e-15 9.39258e-15 -92.4432 55.5234 29.1931 28.1 -39.8498 -83.6529 0.355723 16.7223 -2.41996 5.31636e-10 -3.31255e-09 -6.95829e-10 9.11404e-10 -5.76454e-09 -1.21142e-09 5.31634e-10 -3.31255e-09 -6.95823e-10 -7.73091 5.47488 -0.417314 5.31637e-10 -3.31255e-09 -6.95845e-10 -2.90554 0.965183 -0.102902 5.31634e-10 -3.31255e-09 -6.95838e-10 -10.2786 0.731801 -0.0259123 5.31641e-10 -3.31254e-09 -6.95854e-10 -2.22167 -0.733487 0.20892 -2.03217e-16 0.0 -3.88251e-19 -4.13243 -11.8069 -1.68828 -1.6284 65.457 1.60324 4.6835 27.7196 -14.9554 2.03217e-16 0.0 3.88251e-19 -11.2185 -32.8399 -6.63029 0.447334 41.3155 -0.123178 0.463759 4.74948 16.9218
94.4377 80.2301 135.371 175.677 3.3503 -173.561 -12.4704 0.0552117 6.56629 -0.174933 1.69066 1.85132 2.17837 -19.91 0.121653 5.46307 29.4472 -5.7295 -0.0 0.0 0.0 -0.0 0.0 0.0 9.40443e-14 -3.00036e-14 8.9259e-16 104.376 46.463 -26.6318 -28.1745 -30.3586 75.6541 -0.130593 9.91862 1.40916 -1.5085e-10 -8.98957e-10 3.00522e-10 -2.57778e-10 -1.5579e-09 5.19983e-10 -1.50856e-10 -8.98941e-10 3.0051e-10 7.73091 5.47488 0.417314 -1.50849e-10 -8.98961e-10 3.00523e-10 2.90554 0.965183 0.102902 -1.50844e-10 -8.98957e-10 3.00527e-10 10.2786 0.731801 0.0259123 -1.50854e-10 -8.98954e-10 3.00535e-10 2.22167 -0.733487 -0.20892 9.40378e-14 -3.00085e-14 5.87812e-16 -101.367 59.1157 32.1045 28.0975 -36.4922 -88.0857 0.440142 17.9651 -2.61757 1.01167e-10 -1.01502e-09 -2.60181e-10 1.73019e-10 -1.77267e-09 -4.52466e-10 1.01164e-10 -1.01502e-09 -2.60176e-10 -7.73091 5.47488 -0.417314 1.01167e-10 -1.01502e-09 -2.60195e-10 -2.90554 0.965183 -0.102902 1.01165e-10 -1.01502e-09 -2.60189e-10 -10.2786 0.731801 -0.0259123 1.0117e-10 -1.01501e-09 -2.60203e-10 -2.22167 -0.733487 0.20892 -2.03217e-16 0.0 -3.88251e-19 -5.44992 -13.9628 -1.96682 -2.44732 71.81 2.39761 5.35022 28.5167 -16.3091 2.03217e-16 0.0 3.88251e-19 -12.9101 -34.2548 -6.86459 0.50074 44.7713 -0.162284 0.618765 4.28501 18.6946
